<svg width="130" height="130" viewBox="0 0 130 130" fill="none" xmlns="http://www.w3.org/2000/svg">
<g filter="url(#filter0_d_106_2)">
<path fill-rule="evenodd" clip-rule="evenodd" d="M55.9691 47.1155L72.0459 56.3898C68.0425 58.1642 63.7901 58.138 60.5384 55.9031C57.7348 53.9762 56.1974 50.7665 55.9691 47.1155ZM57.812 59.87C53.7181 57.0563 52.3242 51.5074 53.7635 45.8431L45.4991 41.0756C43.4987 39.9216 40.9992 41.3658 41 43.6753L41.0063 61.2512C43.8883 67.4976 49.75 72.9496 57.5097 75.7739C60.408 76.8288 63.339 77.4326 66.1982 77.6225L83.0086 67.909C85.0082 66.7536 85.0072 63.8668 83.0068 62.7129L73.866 57.4398C68.8283 61.8077 62.3471 62.9869 57.812 59.87ZM57.6833 82.5426C56.8953 82.3223 56.1076 82.0696 55.3223 81.7837C49.1864 79.5505 44.2373 75.6743 41.0098 71.0615L41.0154 86.9765C41.0163 89.2859 43.5168 90.7284 45.5163 89.573L57.6833 82.5426Z" fill="#9C00D2"/>
<path fill-rule="evenodd" clip-rule="evenodd" d="M70.9926 85.6687C70.9999 85.7778 71.0039 85.8893 71.0047 86.0034C70.1457 88.5368 67.2221 89.4166 62.4406 88.7099C57.659 88.0032 53.8592 86.4605 54.293 83.5256C54.7268 80.5907 58.4855 80.0407 63.267 80.7475C65.4084 81.064 67.1789 81.4676 68.4834 82.1229L74.0641 42.4139C74.1794 41.5936 74.9379 41.022 75.7583 41.1373C76.119 41.188 76.4316 41.363 76.6588 41.6129C76.9178 41.6258 77.1767 41.7061 77.4088 41.8592C79.4319 43.1938 81.0415 43.8823 82.5457 44.1046C84.0284 44.3238 85.5508 44.1105 87.4382 43.3925C88.2125 43.098 89.0789 43.4869 89.3735 44.2611C89.6681 45.0354 89.2792 45.9019 88.5049 46.1965C86.282 47.0421 84.2307 47.3862 82.107 47.0724C80.3168 46.8078 78.5793 46.0905 76.733 44.9798L76.1994 48.7767C76.2776 48.8074 76.3543 48.8451 76.4286 48.89C78.3811 50.0706 79.9431 50.6953 81.4086 50.9121C82.8561 51.1262 84.3282 50.9596 86.13 50.3667C86.917 50.1077 87.7648 50.5357 88.0238 51.3227C88.2827 52.1096 87.8547 52.9574 87.0678 53.2164C84.9425 53.9157 82.9895 54.1785 80.9696 53.8798C79.2433 53.6245 77.5573 52.9718 75.7512 51.9659L71.0498 85.4182C71.0376 85.5047 71.0183 85.5883 70.9926 85.6687Z" fill="#FF047D"/>
</g>
<defs>
<filter id="filter0_d_106_2" x="36" y="39.6697" width="58.4719" height="59.3102" filterUnits="userSpaceOnUse" color-interpolation-filters="sRGB">
<feFlood flood-opacity="0" result="BackgroundImageFix"/>
<feColorMatrix in="SourceAlpha" type="matrix" values="0 0 0 0 0 0 0 0 0 0 0 0 0 0 0 0 0 0 127 0" result="hardAlpha"/>
<feOffset dy="4"/>
<feGaussianBlur stdDeviation="2.5"/>
<feComposite in2="hardAlpha" operator="out"/>
<feColorMatrix type="matrix" values="0 0 0 0 0 0 0 0 0 0 0 0 0 0 0 0 0 0 0.25 0"/>
<feBlend mode="normal" in2="BackgroundImageFix" result="effect1_dropShadow_106_2"/>
<feBlend mode="normal" in="SourceGraphic" in2="effect1_dropShadow_106_2" result="shape"/>
</filter>
</defs>
</svg>
